<svg xmlns="http://www.w3.org/2000/svg" width="273.449" height="375" viewBox="0 0 273.449 375">
  <g id="Group_7491" data-name="Group 7491" transform="translate(-883.938 -4901.137)">
    <path id="Path_5290" data-name="Path 5290" d="M536.642,3886.558l96.628,55.706a52.049,52.049,0,0,0,52,0l100.8-58.107a17.728,17.728,0,0,0,0-30.716l-96.628-55.706a52.053,52.053,0,0,0-52,0l-100.8,58.106A17.71,17.71,0,0,0,536.642,3886.558Z" transform="translate(356.351 1326.914)" fill="#cbecf9"/>
    <g id="Group_6022" data-name="Group 6022" transform="translate(883.938 4901.137)">
      <g id="Group_5979" data-name="Group 5979" transform="translate(0 151.478)">
        <g id="Group_5978" data-name="Group 5978" transform="translate(0 79.312)">
          <path id="Path_5294" data-name="Path 5294" d="M1084.485,3950.079l110.761-63.834a12.15,12.15,0,0,0,6.153-10.631V3847.7l-134.9,77.767v29.441A36.391,36.391,0,0,0,1084.485,3950.079Z" transform="translate(-931.576 -3847.699)" fill="#83b9fd"/>
          <path id="Path_5295" data-name="Path 5295" d="M533.253,3886.219l110.736,63.86a36.146,36.146,0,0,0,18.01,4.828v-29.441L527.1,3847.7v27.915A12.111,12.111,0,0,0,533.253,3886.219Z" transform="translate(-527.1 -3847.699)" fill="#83b9fd"/>
        </g>
        <path id="Path_5296" data-name="Path 5296" d="M533.253,3620.542l110.76,63.835a36.052,36.052,0,0,0,36.02,0l110.761-63.835a12.26,12.26,0,0,0,0-21.261l-110.761-63.835a36.052,36.052,0,0,0-36.02,0l-110.76,63.835A12.259,12.259,0,0,0,533.253,3620.542Z" transform="translate(-527.1 -3530.625)" fill="#e1f3ff"/>
      </g>
      <g id="Group_5980" data-name="Group 5980" transform="translate(114.713)">
        <path id="Path_5297" data-name="Path 5297" d="M1155.156,3008.377a28.437,28.437,0,0,0-10.406-10.406l-124.243-71.614a9.616,9.616,0,0,0-9.706,0l-5.7,3.277,143.328,82.62v122.868l5.7-3.277a9.622,9.622,0,0,0,4.853-8.405V3022.585A28.3,28.3,0,0,0,1155.156,3008.377Z" transform="translate(-1000.247 -2925.042)" fill="#5866f2"/>
        <path id="Path_5298" data-name="Path 5298" d="M1000.283,2939.466l124.243,71.613a28.409,28.409,0,0,1,14.233,24.589v100.855a9.723,9.723,0,0,1-14.583,8.4l-124.243-71.615a28.4,28.4,0,0,1-14.232-24.587V2947.87A9.722,9.722,0,0,1,1000.283,2939.466Z" transform="translate(-985.7 -2934.873)" fill="#424bb1"/>
        <path id="Path_5299" data-name="Path 5299" d="M1049.18,2989.207l102.956,59.332a15.369,15.369,0,0,1,7.7,13.332v100.18a5.662,5.662,0,0,1-8.479,4.9L1048.4,3107.621a15.37,15.37,0,0,1-7.7-13.332v-100.18A5.659,5.659,0,0,1,1049.18,2989.207Z" transform="translate(-1026.942 -2972.583)" fill="#fff"/>
        <ellipse id="Ellipse_560" data-name="Ellipse 560" cx="5.778" cy="9.705" rx="5.778" ry="9.705" transform="translate(132.824 139.054) rotate(-30.085)" fill="#fff"/>
        <path id="Path_5300" data-name="Path 5300" d="M1004.6,3102.052c-1.6-.925-2.9-.375-2.9,1.226v33.893a6.027,6.027,0,0,0,2.9,4.578c1.6.925,2.9.375,2.9-1.225v-33.894A6.028,6.028,0,0,0,1004.6,3102.052Z" transform="translate(-997.698 -3057.438)" fill="#fff"/>
      </g>
      <g id="Group_5982" data-name="Group 5982" transform="translate(134.624 24.82)">
        <g id="Group_5981" data-name="Group 5981" transform="translate(10.356 70.021)">
          <path id="Path_5301" data-name="Path 5301" d="M1325.8,3354.852V3304.2l8.255,4.753v50.677Z" transform="translate(-1270.995 -3304.2)" fill="#788acb"/>
          <path id="Path_5302" data-name="Path 5302" d="M1271,3362.418V3328.9l8.254,4.778V3367.2Z" transform="translate(-1229.902 -3322.72)" fill="#788acb"/>
          <path id="Path_5303" data-name="Path 5303" d="M1216.2,3365.486V3343.5l8.28,4.777v21.961Z" transform="translate(-1188.81 -3333.669)" fill="#788acb"/>
          <path id="Path_5304" data-name="Path 5304" d="M1161.4,3357.583V3343.5l8.28,4.752v14.083Z" transform="translate(-1147.717 -3333.669)" fill="#788acb"/>
          <path id="Path_5305" data-name="Path 5305" d="M1106.7,3349.977V3343.9l8.255,4.753v6.1Z" transform="translate(-1106.7 -3333.969)" fill="#788acb"/>
        </g>
        <path id="Path_5306" data-name="Path 5306" d="M1070.678,3024.75l45.75,26.364a10.466,10.466,0,0,1,5.253,9.056v28.19a3.586,3.586,0,0,1-5.378,3.1l-45.75-26.364a10.465,10.465,0,0,1-5.253-9.055v-28.191A3.586,3.586,0,0,1,1070.678,3024.75Z" transform="translate(-1065.3 -3024.268)" fill="#afe6ff"/>
        <path id="Path_5307" data-name="Path 5307" d="M1066.4,3208.319c0-.976.6-1.426,1.326-1l17.409,10.031a3.165,3.165,0,0,1,1.326,2.551c0,.976-.6,1.426-1.326,1l-17.409-10.031A3.2,3.2,0,0,1,1066.4,3208.319Z" transform="translate(-1066.125 -3161.41)" fill="#cad0e6"/>
        <path id="Path_5308" data-name="Path 5308" d="M1104.1,3258.32c0-.975.6-1.426,1.326-1l17.41,10.031a3.164,3.164,0,0,1,1.326,2.551c0,.975-.6,1.426-1.326,1l-17.41-10.031A3.2,3.2,0,0,1,1104.1,3258.32Z" transform="translate(-1094.394 -3198.904)" fill="#e1e6f0"/>
        <path id="Path_5309" data-name="Path 5309" d="M1314,3170.776c0-2.727,1.651-3.977,3.7-2.8l38.121,21.986c2.052,1.177,3.7,4.354,3.7,7.081s-1.651,3.976-3.7,2.8l-38.121-21.987C1315.65,3176.655,1314,3173.5,1314,3170.776Z" transform="translate(-1251.791 -3131.697)" fill="#e1e6f0"/>
        <path id="Path_5310" data-name="Path 5310" d="M1155.5,3259.72c0-.976.6-1.427,1.325-1l4.778,2.752a3.164,3.164,0,0,1,1.325,2.551c0,.975-.6,1.425-1.325,1l-4.778-2.751A3.235,3.235,0,0,1,1155.5,3259.72Z" transform="translate(-1132.938 -3199.953)" fill="#e1e6f0"/>
        <path id="Path_5311" data-name="Path 5311" d="M1066.4,3236.22c0-.976.6-1.426,1.326-1l4.777,2.751a3.165,3.165,0,0,1,1.326,2.551c0,.975-.6,1.425-1.326,1l-4.777-2.75A3.276,3.276,0,0,1,1066.4,3236.22Z" transform="translate(-1066.125 -3182.333)" fill="#e1e6f0"/>
      </g>
      <g id="Group_5995" data-name="Group 5995" transform="translate(172.368 92.763)">
        <ellipse id="Ellipse_561" data-name="Ellipse 561" cx="25.439" cy="14.133" rx="25.439" ry="14.133" transform="translate(12.383 115.164)" fill="#cbecf9"/>
        <g id="Group_5989" data-name="Group 5989" transform="translate(25.321 63.436)">
          <rect id="Rectangle_4067" data-name="Rectangle 4067" width="19.486" height="22.137" transform="translate(0.395 2.301)" fill="#1e2d64"/>
          <g id="Group_5985" data-name="Group 5985" transform="translate(9.086 4.978)">
            <path id="Path_5312" data-name="Path 5312" d="M1367.44,3806.568l-8.7,5.029a2.893,2.893,0,0,1-3.927-1.052l-.675-1.15a2.842,2.842,0,0,1,1.051-3.9l8.7-5.028a2.893,2.893,0,0,1,3.927,1.051l.675,1.151A2.89,2.89,0,0,1,1367.44,3806.568Z" transform="translate(-1353.744 -3742.383)" fill="#1e2d64"/>
            <g id="Group_5983" data-name="Group 5983" transform="translate(5.342)">
              <rect id="Rectangle_4068" data-name="Rectangle 4068" width="10.881" height="29.391" fill="#1e2d64"/>
              <ellipse id="Ellipse_562" data-name="Ellipse 562" cx="5.453" cy="5.428" rx="5.453" ry="5.428" transform="translate(0 23.963)" fill="#1e2d64"/>
            </g>
            <g id="Group_5984" data-name="Group 5984" transform="translate(5.342 23.963)">
              <path id="Path_5313" data-name="Path 5313" d="M1375.2,3689h10.831l-2.826,31.594a2.339,2.339,0,0,1-2.327,2.125h0a2.333,2.333,0,0,1-2.326-2.076Z" transform="translate(-1375.175 -3683.046)" fill="#1e2d64"/>
              <ellipse id="Ellipse_563" data-name="Ellipse 563" cx="5.453" cy="5.428" rx="5.453" ry="5.428" fill="#1e2d64"/>
            </g>
          </g>
          <g id="Group_5988" data-name="Group 5988" transform="translate(0)">
            <path id="Path_5314" data-name="Path 5314" d="M1321.833,3782.994l8.7-5.029a2.892,2.892,0,0,1,3.927,1.051l.675,1.151a2.839,2.839,0,0,1-1.051,3.9l-8.7,5.028a2.891,2.891,0,0,1-3.927-1.05l-.675-1.151A2.889,2.889,0,0,1,1321.833,3782.994Z" transform="translate(-1319.662 -3720.535)" fill="#1e2d64"/>
            <g id="Group_5986" data-name="Group 5986" transform="translate(0.02)">
              <rect id="Rectangle_4069" data-name="Rectangle 4069" width="10.881" height="29.391" fill="#1e2d64"/>
              <ellipse id="Ellipse_564" data-name="Ellipse 564" cx="5.453" cy="5.428" rx="5.453" ry="5.428" transform="translate(0 23.963)" fill="#1e2d64"/>
            </g>
            <g id="Group_5987" data-name="Group 5987" transform="translate(0 23.934)">
              <path id="Path_5315" data-name="Path 5315" d="M1318.4,3667.026l10.656-2.027,3.152,31.567a2.335,2.335,0,0,1-1.876,2.527h0a2.345,2.345,0,0,1-2.676-1.6Z" transform="translate(-1318.155 -3660.043)" fill="#1e2d64"/>
              <ellipse id="Ellipse_565" data-name="Ellipse 565" cx="5.428" cy="5.453" rx="5.428" ry="5.453" transform="translate(0 10.856) rotate(-89.936)" fill="#1e2d64"/>
            </g>
          </g>
        </g>
        <g id="Group_5991" data-name="Group 5991">
          <path id="Path_5316" data-name="Path 5316" d="M1227.337,3309.3l2.727,3.778-.1,6.028s-6.078-8.131-5.878-8.131S1227.337,3309.3,1227.337,3309.3Z" transform="translate(-1222.108 -3305.946)" fill="#ffc891"/>
          <g id="Group_5990" data-name="Group 5990" transform="translate(14.734 20.112)">
            <path id="Path_5317" data-name="Path 5317" d="M1281.7,3385.852l4.727-6.453,11.432,8.354-4.7,6.454Z" transform="translate(-1280.049 -3378.624)" fill="#323e96"/>
            <circle id="Ellipse_566" data-name="Ellipse 566" cx="4.002" cy="4.002" r="4.002" fill="#454563"/>
          </g>
          <path id="Path_5318" data-name="Path 5318" d="M1247.085,3331.308l-6.454,4.678-12.232-18.46,4.2-3.026Z" transform="translate(-1225.346 -3309.845)" fill="#323e96"/>
          <path id="Path_5319" data-name="Path 5319" d="M1282.384,3377.98a4,4,0,1,1-5.6-.875A4,4,0,0,1,1282.384,3377.98Z" transform="translate(-1260.396 -3356.217)" fill="#323e96"/>
          <path id="Path_5320" data-name="Path 5320" d="M1219.222,3301.8a2.953,2.953,0,1,1,2.876-3.026A2.942,2.942,0,0,1,1219.222,3301.8Z" transform="translate(-1216.194 -3295.894)" fill="#fab9af"/>
        </g>
        <ellipse id="Ellipse_567" data-name="Ellipse 567" cx="9.58" cy="9.555" rx="9.58" ry="9.555" transform="translate(28.742 4.054)" fill="#fab9af"/>
        <path id="Path_5321" data-name="Path 5321" d="M1313,3445.4s-1.525-32.969-1.5-39.747,7.779-4.928,13.582-4.9a15.47,15.47,0,0,1,14.458,11.882c1.551,6.353-1.276,41.047-1.276,41.047Z" transform="translate(-1287.659 -3374.336)" fill="#434cb5"/>
        <path id="Path_5322" data-name="Path 5322" d="M1341.3,3396.817c0-5.4,15.183-3.8,12.907,1.3l-11.557,27.214Z" transform="translate(-1310.006 -3369.05)" fill="#e1e6f0"/>
        <path id="Path_5323" data-name="Path 5323" d="M1350.6,3375.1l.125,9.13c.025,1.326,1.826,2.352,4.028,2.327s3.977-1.126,3.952-2.426l-.125-9.131Z" transform="translate(-1316.98 -3355.212)" fill="#fab9af"/>
        <g id="Group_5992" data-name="Group 5992" transform="translate(33.88 2.077)">
          <path id="Path_5324" data-name="Path 5324" d="M1361.11,3305.049a11.014,11.014,0,0,0-1.651-.6c-6.879-1.9-10.931,7.529-4.828,11.281l2.7,1.65a3.1,3.1,0,1,1,3.427,5.153l1,1.527a10.426,10.426,0,0,0,4.427-4.453A10.678,10.678,0,0,0,1361.11,3305.049Z" transform="translate(-1351.639 -3304.199)" fill="#41378c"/>
        </g>
        <g id="Group_5994" data-name="Group 5994" transform="translate(43.654 34.7)">
          <path id="Path_5325" data-name="Path 5325" d="M1416.249,3560.329l-.05-4.678,3.577-4.853s.225,10.131.075,10.031C1419.7,3560.754,1416.249,3560.329,1416.249,3560.329Z" transform="translate(-1409.825 -3521.737)" fill="#ffc891"/>
          <g id="Group_5993" data-name="Group 5993">
            <path id="Path_5326" data-name="Path 5326" d="M1401.969,3447.194l-7.6,2.527-3.477-10.355a3.237,3.237,0,0,1,2.051-4.1l1.45-.476a3.237,3.237,0,0,1,4.1,2.05Z" transform="translate(-1390.717 -3434.616)" fill="#323e96"/>
            <circle id="Ellipse_568" data-name="Ellipse 568" cx="4.002" cy="4.002" r="4.002" transform="translate(3.448 9.851)" fill="#454563"/>
          </g>
          <path id="Path_5327" data-name="Path 5327" d="M1404.6,3491.475l7.954-.075-.7,22.112-5.2.05Z" transform="translate(-1401.127 -3477.195)" fill="#323e96"/>
          <circle id="Ellipse_569" data-name="Ellipse 569" cx="4.002" cy="4.002" r="4.002" transform="translate(3.448 9.851)" fill="#323e96"/>
          <circle id="Ellipse_570" data-name="Ellipse 570" cx="2.952" cy="2.952" r="2.952" transform="translate(5.074 37.266)" fill="#fab9af"/>
        </g>
      </g>
      <g id="Group_6021" data-name="Group 6021" transform="translate(19.323 144.093)">
        <g id="Group_6020" data-name="Group 6020">
          <g id="Group_5997" data-name="Group 5997" transform="translate(132.162 78.379)">
            <path id="Path_5328" data-name="Path 5328" d="M1137.709,3938.236l7.5-5.528a2.67,2.67,0,0,0,.55-3.727l-.751-1a2.671,2.671,0,0,0-3.726-.55l-7.5,5.528a2.671,2.671,0,0,0-.55,3.727l.751,1A2.664,2.664,0,0,0,1137.709,3938.236Z" transform="translate(-1132.708 -3898.777)" fill="#454563"/>
            <g id="Group_5996" data-name="Group 5996" transform="translate(0.398)">
              <path id="Path_5329" data-name="Path 5329" d="M1144.33,3835.875l-10.03-.775.375,29.466a2.152,2.152,0,0,0,2,2.126h0a2.18,2.18,0,0,0,2.3-1.751Z" transform="translate(-1134.3 -3829.934)" fill="#1e2d64"/>
              <path id="Path_5330" data-name="Path 5330" d="M1144.44,3819.888a5.055,5.055,0,1,0-5.428,4.652A5.081,5.081,0,0,0,1144.44,3819.888Z" transform="translate(-1134.335 -3814.446)" fill="#454563"/>
            </g>
          </g>
          <g id="Group_5999" data-name="Group 5999" transform="translate(81.057 51.378)">
            <path id="Path_5331" data-name="Path 5331" d="M990.126,3815.462l8.255-4.377a2.648,2.648,0,0,0,1.1-3.6l-.575-1.1a2.67,2.67,0,0,0-3.6-1.1l-8.254,4.377a2.65,2.65,0,0,0-1.1,3.6l.575,1.1A2.706,2.706,0,0,0,990.126,3815.462Z" transform="translate(-971.316 -3780.343)" fill="#333"/>
            <g id="Group_5998" data-name="Group 5998">
              <path id="Path_5332" data-name="Path 5332" d="M940.555,3719.3l-8.955,4.6,15.759,24.889a2.185,2.185,0,0,0,2.826.775h0a2.166,2.166,0,0,0,1.026-2.7Z" transform="translate(-930.799 -3716.097)" fill="#1e2d64"/>
              <circle id="Ellipse_571" data-name="Ellipse 571" cx="5.053" cy="5.053" r="5.053" fill="#454563"/>
            </g>
          </g>
          <path id="Path_5333" data-name="Path 5333" d="M606.263,3792.34l90.324,52.053a11.257,11.257,0,0,0,11.231,0l34.569-19.911a3.826,3.826,0,0,0,0-6.628L652.063,3765.8a11.258,11.258,0,0,0-11.231,0l-34.569,19.887A3.848,3.848,0,0,0,606.263,3792.34Z" transform="translate(-604.35 -3698.463)" fill="#cbecf9"/>
          <g id="Group_6001" data-name="Group 6001" transform="translate(0 42.898)">
            <g id="Group_6000" data-name="Group 6000" transform="translate(0.013 24.739)">
              <path id="Path_5334" data-name="Path 5334" d="M1001.3,3931.941l34.569-19.911a3.8,3.8,0,0,0,1.926-3.327V3900l-42.1,24.263v9.18A11.268,11.268,0,0,0,1001.3,3931.941Z" transform="translate(-897.821 -3867.857)" fill="#83b9fd"/>
              <path id="Path_5335" data-name="Path 5335" d="M606.3,3783.505l90.324,52.052a11.214,11.214,0,0,0,5.628,1.5V3827.9L604.4,3771.5v8.705A3.762,3.762,0,0,0,606.3,3783.505Z" transform="translate(-604.4 -3771.499)" fill="#83b9fd"/>
            </g>
            <path id="Path_5336" data-name="Path 5336" d="M606.263,3700.64l90.324,52.054a11.253,11.253,0,0,0,11.231,0l34.569-19.911a3.827,3.827,0,0,0,0-6.629L652.063,3674.1a11.26,11.26,0,0,0-11.231,0l-34.569,19.912A3.827,3.827,0,0,0,606.263,3700.64Z" transform="translate(-604.35 -3672.6)" fill="#fff"/>
          </g>
          <g id="Group_6002" data-name="Group 6002" transform="translate(117.101 78.393)">
            <path id="Path_5337" data-name="Path 5337" d="M1096.563,3827.5l-7.079-7.2-16.984,16.634,10.18,4.153Z" transform="translate(-1072.5 -3818.849)" fill="#1e2d64"/>
            <circle id="Ellipse_572" data-name="Ellipse 572" cx="5.053" cy="5.053" r="5.053" transform="translate(15.483)" fill="#1e2d64"/>
          </g>
          <g id="Group_6003" data-name="Group 6003" transform="translate(65.598 51.397)">
            <path id="Path_5338" data-name="Path 5338" d="M890.663,3719.5l-7.1-7.2L866.6,3728.959l10.181,4.152Z" transform="translate(-866.6 -3710.867)" fill="#1e2d64"/>
            <path id="Path_5339" data-name="Path 5339" d="M936.957,3715.209a5.005,5.005,0,0,0,.05-7.129,5.059,5.059,0,0,0-7.154-.05,5.005,5.005,0,0,0-.05,7.129A5.081,5.081,0,0,0,936.957,3715.209Z" transform="translate(-912.894 -3706.573)" fill="#1e2d64"/>
          </g>
          <g id="Group_6011" data-name="Group 6011" transform="translate(94.828 35.144)">
            <path id="Path_5340" data-name="Path 5340" d="M1042.563,3856.084h0V3840.3H1019v5.728A13.931,13.931,0,0,0,1042.563,3856.084Z" transform="translate(-1010.108 -3790.597)" fill="#1e2d64"/>
            <g id="Group_6006" data-name="Group 6006" transform="translate(0 28.791)">
              <g id="Group_6004" data-name="Group 6004" transform="translate(2.889 7.079)">
                <path id="Path_5341" data-name="Path 5341" d="M995.8,3795.129l5.728,2.151,3.827-10.129L999.627,3785Z" transform="translate(-995.6 -3784.999)" fill="#ffc891"/>
                <path id="Path_5342" data-name="Path 5342" d="M995.2,3819.577a3.048,3.048,0,1,0,3.927-1.775A3.044,3.044,0,0,0,995.2,3819.577Z" transform="translate(-995.002 -3809.447)" fill="#ffc891"/>
              </g>
              <g id="Group_6005" data-name="Group 6005" transform="translate(0 15.209)">
                <path id="Path_5343" data-name="Path 5343" d="M995.979,3829.4l-5.878-1.5-1.7,14.057,2.3.6Z" transform="translate(-987.163 -3825.298)" fill="#fab9af"/>
                <path id="Path_5344" data-name="Path 5344" d="M1001.03,3821.328a3.061,3.061,0,1,0-3.727,2.2A3.053,3.053,0,0,0,1001.03,3821.328Z" transform="translate(-992.113 -3817.501)" fill="#fab9af"/>
                <path id="Path_5345" data-name="Path 5345" d="M985.166,3871.416a2.6,2.6,0,0,0-1.551,3.327,2.635,2.635,0,0,0,3.352,1.551,2.6,2.6,0,1,0-1.8-4.877Z" transform="translate(-983.453 -3857.808)" fill="#fab9af"/>
              </g>
              <path id="Path_5346" data-name="Path 5346" d="M1014.439,3759.676l-4.678,10.631c-.675,1.525-2.751,2.1-4.628,1.275s-2.852-2.726-2.176-4.252l4.678-10.631Z" transform="translate(-997.919 -3756.699)" fill="#00aeef"/>
            </g>
            <circle id="Ellipse_573" data-name="Ellipse 573" cx="8.88" cy="8.88" r="8.88" transform="translate(16.045 1.051)" fill="#fab9af"/>
            <path id="Path_5347" data-name="Path 5347" d="M1034.233,3774.9a6.336,6.336,0,0,0,9.755-5.3V3745.3c0-6.278-7.2-10.106-12.606-10.106S1019,3738.125,1019,3744.18v20.96Z" transform="translate(-1010.108 -3711.786)" fill="#00aeef"/>
            <path id="Path_5348" data-name="Path 5348" d="M1062.387,3706.475l-2.151,8.206c-.3,1.175-2.177,1.726-4.152,1.2s-3.352-1.9-3.027-3.076l2.151-8.2Z" transform="translate(-1035.611 -3688.841)" fill="#fab9af"/>
            <g id="Group_6007" data-name="Group 6007" transform="translate(14.645)">
              <path id="Path_5349" data-name="Path 5349" d="M1051.705,3641.6a4.7,4.7,0,0,1,5.728,5.928,10.59,10.59,0,0,1-.325,2.527,2.863,2.863,0,0,0-.926-.15,2.77,2.77,0,0,0-2.776,2.777,2.814,2.814,0,0,0,.875,2.026,7.675,7.675,0,1,1-2.576-13.108Z" transform="translate(-1042 -3641.598)" fill="#32285f"/>
            </g>
            <g id="Group_6010" data-name="Group 6010" transform="translate(26.151 36.72)">
              <g id="Group_6008" data-name="Group 6008" transform="translate(1.389 7.309)">
                <rect id="Rectangle_4070" data-name="Rectangle 4070" width="6.103" height="10.806" transform="translate(0 0.791) rotate(-7.446)" fill="#ffc891"/>
                <path id="Path_5350" data-name="Path 5350" d="M1098.917,3853.343a3.053,3.053,0,1,0,2.626-3.427A3.047,3.047,0,0,0,1098.917,3853.343Z" transform="translate(-1097.555 -3841.816)" fill="#ffc891"/>
              </g>
              <g id="Group_6009" data-name="Group 6009" transform="translate(2.729 15.37)">
                <path id="Path_5351" data-name="Path 5351" d="M1105.5,3860.3l-5.9,1.451,6.179,17.985,2.326-.575Z" transform="translate(-1099.426 -3857.684)" fill="#fab9af"/>
                <path id="Path_5352" data-name="Path 5352" d="M1104.934,3852.162a3.057,3.057,0,0,0-3.7-2.227,3.02,3.02,0,0,0-2.226,3.7,3.054,3.054,0,0,0,5.928-1.476Z" transform="translate(-1098.908 -3849.847)" fill="#fab9af"/>
                <circle id="Ellipse_574" data-name="Ellipse 574" cx="2.601" cy="2.601" r="2.601" transform="translate(4.675 18.248)" fill="#fab9af"/>
              </g>
              <path id="Path_5353" data-name="Path 5353" d="M1095.4,3788.4l1.15,11.557c.175,1.651-1.35,3.177-3.4,3.376s-3.827-.976-4-2.651l-1.15-11.556Z" transform="translate(-1088 -3788.399)" fill="#00aeef"/>
            </g>
          </g>
          <g id="Group_6019" data-name="Group 6019" transform="translate(46.576)">
            <path id="Path_5354" data-name="Path 5354" d="M849.763,3715.583h0V3699.8H826.2v5.729A13.926,13.926,0,0,0,849.763,3715.583Z" transform="translate(-817.283 -3650.096)" fill="#454563"/>
            <g id="Group_6014" data-name="Group 6014" transform="translate(0 28.791)">
              <g id="Group_6012" data-name="Group 6012" transform="translate(2.903 7.079)">
                <path id="Path_5355" data-name="Path 5355" d="M802.9,3654.63l5.728,2.15,3.827-10.13-5.728-2.152Z" transform="translate(-802.714 -3644.499)" fill="#ffc891"/>
                <circle id="Ellipse_575" data-name="Ellipse 575" cx="3.052" cy="3.052" r="3.052" transform="translate(0 14.242) rotate(-89.89)" fill="#ffc891"/>
              </g>
              <g id="Group_6013" data-name="Group 6013" transform="translate(0 15.209)">
                <path id="Path_5356" data-name="Path 5356" d="M803.1,3688.9l-5.9-1.5-1.7,14.058,2.3.6Z" transform="translate(-794.263 -3684.798)" fill="#ffc891"/>
                <path id="Path_5357" data-name="Path 5357" d="M808.13,3680.829a3.061,3.061,0,1,0-3.727,2.2A3.054,3.054,0,0,0,808.13,3680.829Z" transform="translate(-799.213 -3677.002)" fill="#ffc891"/>
                <path id="Path_5358" data-name="Path 5358" d="M792.266,3730.915a2.6,2.6,0,0,0-1.551,3.327,2.636,2.636,0,0,0,3.352,1.551,2.6,2.6,0,1,0-1.8-4.877Z" transform="translate(-790.553 -3717.307)" fill="#ffc891"/>
              </g>
              <path id="Path_5359" data-name="Path 5359" d="M821.539,3619.176l-4.677,10.631c-.675,1.526-2.751,2.1-4.628,1.276s-2.852-2.727-2.176-4.253l4.677-10.63Z" transform="translate(-805.018 -3616.2)" fill="#ffa50a"/>
            </g>
            <circle id="Ellipse_576" data-name="Ellipse 576" cx="8.88" cy="8.88" r="8.88" transform="translate(16.045 1.051)" fill="#fab9af"/>
            <path id="Path_5360" data-name="Path 5360" d="M830.315,3648.5s2.627-37.5,2.627-43.8-7.2-10.106-12.607-10.106-12.382,2.927-12.382,8.979-6,28.716-6,28.716-.751,4.327,7.779,10.255C818.309,3648.5,830.315,3648.5,830.315,3648.5Z" transform="translate(-799.087 -3571.213)" fill="#ffa50a"/>
            <path id="Path_5361" data-name="Path 5361" d="M869.487,3565.976l-2.151,8.2c-.3,1.176-2.176,1.726-4.152,1.2s-3.352-1.9-3.026-3.077l2.151-8.2Z" transform="translate(-842.711 -3548.341)" fill="#ffc891"/>
            <g id="Group_6015" data-name="Group 6015" transform="translate(14.645)">
              <path id="Path_5362" data-name="Path 5362" d="M858.805,3501.1a4.7,4.7,0,0,1,5.728,5.928,10.589,10.589,0,0,1-.325,2.526,2.868,2.868,0,0,0-.925-.15,2.771,2.771,0,0,0-2.776,2.776,2.815,2.815,0,0,0,.876,2.027,7.675,7.675,0,1,1-2.576-13.107Z" transform="translate(-849.1 -3501.1)" fill="#32285f"/>
            </g>
            <g id="Group_6018" data-name="Group 6018" transform="translate(26.151 36.72)">
              <g id="Group_6016" data-name="Group 6016" transform="translate(1.389 7.333)">
                <rect id="Rectangle_4071" data-name="Rectangle 4071" width="6.103" height="10.806" transform="translate(0 0.791) rotate(-7.446)" fill="#ffc891"/>
                <path id="Path_5363" data-name="Path 5363" d="M906.017,3712.843a3.053,3.053,0,1,0,2.626-3.427A3.047,3.047,0,0,0,906.017,3712.843Z" transform="translate(-904.655 -3701.341)" fill="#ffc891"/>
              </g>
              <g id="Group_6017" data-name="Group 6017" transform="translate(2.729 15.395)">
                <path id="Path_5364" data-name="Path 5364" d="M912.6,3719.8l-5.9,1.477,6.2,17.96,2.3-.575Z" transform="translate(-906.527 -3717.21)" fill="#fab9af"/>
                <path id="Path_5365" data-name="Path 5365" d="M912.035,3711.761a3.058,3.058,0,0,0-3.7-2.227,3.022,3.022,0,0,0-2.226,3.7,3.055,3.055,0,0,0,5.928-1.476Z" transform="translate(-906.009 -3709.446)" fill="#fab9af"/>
                <path id="Path_5366" data-name="Path 5366" d="M925.345,3783.17a2.605,2.605,0,1,0,3.677-.226A2.609,2.609,0,0,0,925.345,3783.17Z" transform="translate(-920.019 -3764.071)" fill="#fab9af"/>
              </g>
              <path id="Path_5367" data-name="Path 5367" d="M902.5,3647.9l1.151,11.556c.175,1.65-1.351,3.176-3.4,3.377s-3.827-.976-4-2.651l-1.151-11.557Z" transform="translate(-895.1 -3647.899)" fill="#ffa50a"/>
            </g>
            <path id="Path_5368" data-name="Path 5368" d="M840.994,3543.8s7.529,7.3,1.026,15.684-19.661,3.751-20.061-3.127,8.155-7.454,7.129-13.332S840.994,3543.8,840.994,3543.8Z" transform="translate(-814.093 -3530.721)" fill="#32285f"/>
          </g>
        </g>
      </g>
    </g>
  </g>
</svg>
